<svg xmlns="http://www.w3.org/2000/svg" xmlns:xlink="http://www.w3.org/1999/xlink" viewBox="0 0 200 200"><defs><style>.cls-1{fill:#0f111e;}.cls-2{fill:none;stroke:#000;stroke-miterlimit:10;stroke-width:1px;}.cls-3{fill:url(#linear-gradient);}.cls-4{fill:url(#linear-gradient-2);}.cls-5{fill:url(#linear-gradient-3);}.cls-6{fill:url(#linear-gradient-4);}.cls-7{fill:#fff;opacity:0.31;}.cls-8{fill:url(#linear-gradient-5);}.cls-10,.cls-11,.cls-12,.cls-9{fill:#fbd2ff;}.cls-9{opacity:0.12;}.cls-10{opacity:0.51;}.cls-11{opacity:0.32;}.cls-12{opacity:0.43;}.cls-13{fill:#070f35;opacity:0.18;}</style><linearGradient id="linear-gradient" x1="51.21" y1="49.43" x2="157.75" y2="49.43" gradientUnits="userSpaceOnUse"><stop offset="0" stop-color="#9000ba"/><stop offset="1" stop-color="#d757e2"/></linearGradient><linearGradient id="linear-gradient-2" x1="51" y1="105.54" x2="157.54" y2="105.54" xlink:href="#linear-gradient"/><linearGradient id="linear-gradient-3" x1="388.47" y1="201.18" x2="464.51" y2="254.46" gradientUnits="userSpaceOnUse"><stop offset="0" stop-color="#3879c7"/><stop offset="0.16" stop-color="#4ea2d8"/><stop offset="0.31" stop-color="#61c3e6"/><stop offset="0.48" stop-color="#6fddf1"/><stop offset="0.64" stop-color="#7af0f9"/><stop offset="0.81" stop-color="#80fbfd"/><stop offset="1" stop-color="#82ffff"/></linearGradient><linearGradient id="linear-gradient-4" x1="51" y1="147.79" x2="144.3" y2="147.79" xlink:href="#linear-gradient"/><linearGradient id="linear-gradient-5" x1="51" y1="129.63" x2="130.78" y2="129.63" gradientUnits="userSpaceOnUse"><stop offset="0" stop-color="#82ffff"/><stop offset="0.19" stop-color="#80fbfd"/><stop offset="0.36" stop-color="#7af0f9"/><stop offset="0.52" stop-color="#6fddf1"/><stop offset="0.69" stop-color="#61c3e6"/><stop offset="0.84" stop-color="#4ea2d8"/><stop offset="1" stop-color="#3879c7"/></linearGradient></defs><g id="OBJECTS"><rect class="cls-1" width="200" height="200"/><path class="cls-2" d="M432,222.19" transform="translate(-301.36 -140.06)"/><polygon class="cls-3" points="104.48 26.45 157.75 62.5 144.12 72.41 104.48 45.31 64.9 72.41 51.21 62.5 104.48 26.45"/><polygon class="cls-4" points="51 62.5 157.54 139.62 144.3 148.58 51 81.04 51 62.5"/><path class="cls-5" d="M459.36,259.94v19.74L366.5,212.47l39.59-27.1s38.09,26,39.64,27.1l-6.93,5-6.56,4.73-26.15-19-12.58,9.1Z" transform="translate(-301.36 -140.06)"/><polygon class="cls-6" points="51 119.91 104.27 158.2 130.78 138.79 144.3 148.58 104.27 175.67 51 139.62 51 119.91"/><polygon class="cls-7" points="158 119.89 158 129.49 79.08 72.41 104.73 54.92 137.44 77.41 130.88 82.14 104.73 63.12 92.15 72.22 158 119.89"/><polygon class="cls-8" points="130.78 138.79 104.28 158.21 51 119.91 51 101.06 104.28 139.2 117.98 129.53 124.14 133.99 130.78 138.79"/><polygon class="cls-7" points="124.14 133.99 104.28 147.79 51 108.83 51 101.06 104.28 139.2 117.98 129.53 124.14 133.99"/><polygon class="cls-9" points="104 26.45 104 45.31 143.64 72.41 157.27 62.5 104 26.45"/><polygon class="cls-10" points="64.89 72.41 156.01 140.8 157.75 139.62 64.89 72.41"/><polygon class="cls-11" points="51.21 62.5 104.48 28.77 156.03 63.75 157.75 62.5 104.48 26.45 51.21 62.5"/><polygon class="cls-12" points="130.78 138.79 104.27 160.9 51 122.02 51 119.91 104.28 158.21 130.78 138.79"/><polygon class="cls-13" points="130.99 138.79 113.05 133.15 118.19 129.53 130.99 138.79"/></g></svg>