<svg width="372" height="393" viewBox="0 0 372 393" fill="none" xmlns="http://www.w3.org/2000/svg">
<path d="M371.984 0L342.758 338.923C299.447 372.527 245.06 392.526 185.992 392.526C126.924 392.526 72.537 372.527 29.226 338.923L0 0H371.984Z" fill="#006BC0"/>
<path d="M185.989 31.8638V385.822L308.261 351.303L335.537 31.8638H185.989Z" fill="#0096DC"/>
<path d="M294.028 170.313H205.842L297.991 123.416L301.973 76.272H70.0049L74.0639 124.337H167.181L77.8369 169.01L81.9939 218.249H241.368L236.144 276.892L185.989 290.476L133.744 275.847L132.438 239.276H83.7699L89.8579 311.374L185.989 338.541L282.119 311.374L294.031 170.305L294.028 170.313Z" fill="white"/>
</svg>
