<svg width="371" height="393" viewBox="0 0 371 393" fill="none" xmlns="http://www.w3.org/2000/svg">
<path d="M370.887 0L341.661 338.923C298.35 372.527 243.963 392.526 184.895 392.526C126.36 392.526 72.422 372.882 29.299 339.821L0 0H370.887Z" fill="#E64C18"/>
<path d="M185.441 31.7749V384.693L307.355 350.276L334.55 31.7749H185.441Z" fill="#F36518"/>
<path d="M69.798 76.054L81.753 217.617H240.656L235.457 276.094L185.444 289.638L133.355 275.046L132.047 238.587H83.526L89.6 310.467L185.444 337.554L281.287 310.467L293.165 169.821H125.823L121.67 123.982L121.669 123.98L297.121 123.061L301.089 76.054H69.798Z" fill="white"/>
</svg>
